<?xml version="1.0" standalone="no"?>
<!DOCTYPE svg PUBLIC "-//W3C//DTD SVG 20010904//EN"
 "http://www.w3.org/TR/2001/REC-SVG-20010904/DTD/svg10.dtd">
<svg version="1.0" xmlns="http://www.w3.org/2000/svg"
 width="700.000000pt" height="700.000000pt" viewBox="0 0 700.000000 700.000000"
 preserveAspectRatio="xMidYMid meet">
<metadata>
Created by potrace 1.11, written by Peter Selinger 2001-2013
</metadata>
<g transform="translate(0.000000,700.000000) scale(0.100000,-0.100000)"
fill="#000000" stroke="none">
<path d="M300 3500 l0 -2200 240 0 240 0 0 50 0 50 -127 1 c-71 0 -156 1 -190
0 l-62 -1 0 2098 0 2098 190 0 189 -1 0 53 0 52 -240 0 -240 0 0 -2200z"/>
<path d="M6215 5650 c0 -27 4 -51 10 -51 5 -1 91 -2 190 -3 l180 -1 2 -2097 3
-2098 -193 0 -193 0 1 -50 0 -50 243 0 242 0 0 2200 0 2200 -243 0 -242 0 0
-50z"/>
<path d="M1150 4961 c-14 -5 -39 -15 -55 -24 -97 -50 -223 -267 -156 -267 14
0 23 11 32 38 27 84 87 161 155 197 111 59 191 6 179 -118 -6 -70 -100 -449
-121 -490 -48 -95 -131 -137 -210 -107 l-28 11 30 18 c62 38 69 118 13 141
-42 18 -93 -6 -116 -55 -38 -80 27 -154 140 -160 74 -5 118 16 174 79 l39 44
22 -34 c69 -106 217 -122 329 -37 65 49 149 193 136 231 -8 22 -33 13 -44 -15
-44 -118 -113 -199 -187 -221 -51 -16 -67 -15 -101 3 -38 19 -54 62 -49 132 5
55 71 332 105 438 40 126 123 185 221 159 28 -8 28 -17 -2 -33 -73 -39 -51
-159 26 -146 108 19 124 154 24 203 -43 22 -126 26 -166 9 -36 -15 -96 -69
-116 -103 -10 -17 -12 -17 -27 11 -43 83 -151 125 -247 96z"/>
<path d="M3930 4961 c-82 -25 -157 -96 -205 -195 -34 -71 -36 -96 -5 -96 13 0
23 14 35 48 36 106 122 193 206 207 84 14 130 -38 123 -140 -4 -55 -72 -342
-105 -443 -42 -127 -132 -187 -226 -151 l-28 11 27 14 c30 16 58 61 58 93 0
46 -85 74 -126 40 -26 -21 -45 -68 -41 -98 11 -67 60 -102 149 -106 76 -5 121
16 174 79 l37 44 31 -41 c46 -61 105 -88 184 -83 70 4 122 32 183 98 41 44 87
130 91 168 2 19 -2 25 -16 25 -14 0 -26 -14 -40 -51 -46 -113 -122 -187 -205
-200 -76 -12 -121 33 -121 122 0 41 75 374 102 449 48 137 113 189 213 171 38
-8 46 -21 16 -31 -11 -3 -28 -24 -40 -47 -18 -37 -19 -44 -5 -69 8 -16 23 -30
34 -30 11 -1 26 -2 33 -3 23 -4 66 28 79 58 26 64 1 117 -69 148 -90 40 -182
13 -251 -74 l-29 -37 -30 43 c-49 70 -148 103 -233 77z"/>
<path d="M2220 4714 c-40 -28 -116 -52 -177 -56 -43 -2 -57 -15 -44 -37 9 -14
99 -9 144 8 16 6 30 11 33 11 8 0 4 -675 -5 -689 -7 -11 -61 -19 -148 -21 -18
0 -21 -4 -15 -21 8 -20 15 -21 230 -22 140 -1 223 2 226 8 11 30 -10 40 -82
41 -41 1 -79 7 -85 13 -7 7 -11 130 -11 388 -1 208 -5 384 -9 391 -11 16 -16
15 -57 -14z"/>
<path d="M2970 4730 c0 -24 -173 -82 -223 -74 -12 1 -17 -5 -17 -22 0 -20 5
-24 33 -24 18 0 57 6 87 14 30 8 57 13 59 11 2 -2 3 -129 3 -282 -1 -444 2
-400 -30 -411 -16 -5 -48 -10 -73 -10 -24 0 -49 -1 -55 -1 -16 -1 -25 -41 -11
-41 44 -1 434 -1 442 0 6 0 11 9 12 20 2 17 -5 20 -45 21 -91 1 -128 12 -134
37 -2 9 -3 185 -3 390 0 204 -2 372 -5 373 -3 0 -13 2 -22 4 -10 2 -18 -1 -18
-5z"/>
<path d="M4999 4715 c-40 -30 -122 -56 -178 -57 -33 0 -40 -4 -44 -24 -4 -22
-1 -24 32 -24 35 0 82 9 129 24 l22 7 0 -339 c0 -294 -2 -341 -15 -352 -9 -7
-48 -15 -87 -16 -38 -2 -72 -4 -74 -6 -2 -2 -1 -13 2 -23 5 -19 14 -20 232
-18 214 1 227 2 224 20 -5 23 2 21 -67 24 -64 3 -104 15 -106 33 -1 6 -2 178
-3 381 -1 204 -5 376 -9 383 -11 17 -18 15 -58 -13z"/>
<path d="M5638 4725 c-104 -26 -178 -105 -186 -198 -3 -42 0 -55 14 -68 33
-29 59 -31 87 -8 46 36 28 119 -26 119 -26 0 -21 15 18 54 140 144 365 34 342
-166 -11 -90 -48 -141 -248 -344 -116 -116 -189 -198 -189 -210 0 -18 9 -19
260 -19 142 1 261 3 264 5 5 6 36 187 36 212 0 11 -7 18 -19 18 -14 0 -21 -9
-26 -32 -10 -50 -26 -88 -39 -89 -43 -4 -346 -3 -345 1 0 3 63 57 141 120 247
201 291 258 290 370 0 71 -26 125 -83 174 -71 60 -193 86 -291 61z"/>
<path d="M1115 2746 c-61 -28 -138 -109 -170 -179 -30 -64 -32 -97 -6 -97 13
0 24 16 40 57 56 145 182 234 274 192 62 -28 66 -109 17 -309 -18 -69 -34
-136 -36 -149 -3 -14 -7 -28 -9 -31 -2 -4 -7 -22 -10 -41 -15 -85 -76 -175
-136 -199 -30 -13 -114 -6 -124 10 -3 5 4 11 15 15 27 8 60 57 60 89 0 38 -35
65 -78 60 -41 -5 -58 -17 -78 -55 -32 -62 4 -130 80 -154 65 -20 102 -19 151
5 52 25 67 37 99 84 15 23 26 32 26 22 0 -9 20 -36 44 -61 121 -121 314 -62
408 126 36 70 40 104 13 104 -14 0 -24 -13 -37 -48 -52 -140 -179 -234 -267
-197 -67 27 -77 108 -33 273 13 51 26 100 28 110 2 9 6 26 9 37 3 11 7 29 9
39 43 191 108 281 203 281 61 0 95 -22 55 -34 -23 -8 -52 -57 -52 -88 0 -50
46 -75 102 -56 55 19 78 101 44 153 -36 54 -148 81 -217 52 -36 -15 -84 -57
-109 -96 l-15 -22 -33 46 c-59 84 -167 108 -267 61z"/>
<path d="M3930 2761 c-50 -16 -87 -40 -133 -90 -75 -81 -123 -201 -79 -201 11
0 23 16 36 48 59 148 184 240 275 202 38 -15 56 -60 54 -130 -1 -53 -75 -369
-108 -459 -41 -118 -132 -175 -222 -140 l-28 11 27 14 c62 33 76 118 23 142
-58 27 -126 -18 -130 -85 -5 -73 43 -118 137 -129 72 -8 131 17 183 79 l38 45
31 -41 c92 -121 247 -114 369 16 40 44 85 127 89 167 2 19 -2 25 -16 25 -14 0
-26 -14 -40 -51 -44 -107 -108 -174 -189 -196 -84 -22 -137 23 -137 118 0 46
77 378 107 464 41 113 101 164 186 157 49 -4 72 -16 48 -25 -57 -20 -83 -116
-38 -144 12 -8 29 -13 37 -12 8 0 22 2 31 2 44 5 82 75 68 128 -11 38 -36 62
-86 80 -96 34 -178 5 -249 -88 l-21 -27 -30 43 c-50 71 -147 103 -233 77z"/>
<path d="M2145 2530 c-121 -28 -205 -117 -205 -217 0 -65 56 -99 103 -62 46
36 28 119 -26 119 -26 0 -21 14 21 57 60 61 151 79 227 44 98 -44 138 -153 99
-268 -23 -68 -47 -98 -244 -298 -161 -164 -203 -213 -182 -216 28 -5 525 -3
527 2 4 6 23 119 32 187 5 38 3 42 -16 42 -12 0 -21 -3 -22 -7 -6 -68 -27
-113 -53 -114 -86 -4 -336 -4 -336 1 1 3 67 59 147 125 244 201 288 256 285
360 -2 140 -109 237 -272 248 -30 2 -68 1 -85 -3z"/>
<path d="M2955 2518 c-45 -35 -115 -57 -191 -60 -29 -1 -34 -5 -34 -25 0 -19
5 -23 33 -23 18 0 57 6 87 14 30 8 57 13 59 11 3 -3 4 -501 2 -647 -1 -32 -5
-39 -28 -45 -41 -11 -39 -10 -92 -12 -40 -1 -50 -5 -54 -21 -4 -14 0 -20 11
-20 22 -1 435 -1 444 0 7 0 5 27 -4 35 -3 3 -34 7 -69 9 -75 4 -99 12 -100 35
-1 9 -2 183 -4 386 -1 204 -3 373 -4 376 -2 12 -33 5 -56 -13z"/>
<path d="M4909 2526 c-95 -25 -162 -88 -184 -173 -15 -58 -4 -96 30 -111 49
-22 98 15 93 70 -2 26 -10 36 -35 48 -18 8 -33 18 -33 21 0 4 17 24 38 46 129
133 345 41 339 -145 -4 -104 -37 -153 -254 -373 -119 -121 -191 -202 -188
-210 4 -11 53 -14 265 -14 142 0 261 3 264 6 4 4 36 198 36 221 0 4 -8 8 -18
8 -14 0 -23 -15 -35 -60 -15 -54 -20 -60 -45 -61 -77 -4 -318 -5 -324 -2 -8 4
78 81 244 217 113 92 165 158 175 221 13 91 -10 167 -68 222 -67 63 -201 94
-300 69z"/>
<path d="M5650 2529 c-60 -12 -128 -56 -164 -107 -25 -35 -31 -53 -31 -99 0
-48 3 -58 26 -75 21 -16 30 -17 54 -8 36 14 45 26 45 66 0 33 -26 64 -53 64
-26 0 -20 16 22 58 124 122 319 55 338 -117 12 -114 -33 -183 -266 -416 -108
-107 -171 -177 -171 -190 0 -20 6 -20 263 -20 l262 1 12 60 c7 32 15 85 19
117 6 52 5 57 -13 57 -16 0 -22 -11 -32 -55 -7 -30 -17 -58 -24 -62 -19 -11
-348 -10 -344 1 2 6 79 74 170 151 215 180 253 233 250 347 -2 37 -30 109 -55
138 -59 70 -196 109 -308 89z"/>
</g>
</svg>
